<svg id="visual" viewBox="0 0 540 960" width="540" height="960" version="1.1">
    <path 
        d="M442 960L446.5 944C451 928 460 896 465.3 864C470.7 832 472.3 800 470.5 768C468.7 736 463.3 704 461.5 672C459.7 640 461.3 608 457.7 576C454 544 445 512 447.8 480C450.7 448 465.3 416 475.3 384C485.3 352 490.7 320 489.7 288C488.7 256 481.3 224 477.7 192C474 160 474 128 475 96C476 64 478 32 479 16L480 0L540 0L540 16C540 32 540 64 540 96C540 128 540 160 540 192C540 224 540 256 540 288C540 320 540 352 540 384C540 416 540 448 540 480C540 512 540 544 540 576C540 608 540 640 540 672C540 704 540 736 540 768C540 800 540 832 540 864C540 896 540 928 540 944L540 960Z" fill="#a10035">
    </path>
    <path 
        d="M291 960L291 944C291 928 291 896 306.2 864C321.3 832 351.7 800 360.7 768C369.7 736 357.3 704 333.2 672C309 640 273 608 265.7 576C258.3 544 279.7 512 302.2 480C324.7 448 348.3 416 358.3 384C368.3 352 364.7 320 370 288C375.3 256 389.7 224 381.5 192C373.3 160 342.7 128 333.7 96C324.7 64 337.3 32 343.7 16L350 0L481 0L480 16C479 32 477 64 476 96C475 128 475 160 478.7 192C482.3 224 489.7 256 490.7 288C491.7 320 486.3 352 476.3 384C466.3 416 451.7 448 448.8 480C446 512 455 544 458.7 576C462.3 608 460.7 640 462.5 672C464.3 704 469.7 736 471.5 768C473.3 800 471.7 832 466.3 864C461 896 452 928 447.5 944L443 960Z" fill="#a91136">
    </path>
    <path 
        d="M220 960L221.8 944C223.7 928 227.3 896 243.7 864C260 832 289 800 296.2 768C303.3 736 288.7 704 270.7 672C252.7 640 231.3 608 229.7 576C228 544 246 512 260.3 480C274.7 448 285.3 416 288.8 384C292.3 352 288.7 320 294 288C299.3 256 313.7 224 306.5 192C299.3 160 270.7 128 269.8 96C269 64 296 32 309.5 16L323 0L351 0L344.7 16C338.3 32 325.7 64 334.7 96C343.7 128 374.3 160 382.5 192C390.7 224 376.3 256 371 288C365.7 320 369.3 352 359.3 384C349.3 416 325.7 448 303.2 480C280.7 512 259.3 544 266.7 576C274 608 310 640 334.2 672C358.3 704 370.7 736 361.7 768C352.7 800 322.3 832 307.2 864C292 896 292 928 292 944L292 960Z" fill="#b21e37">
    </path>
    <path 
        d="M161 960L163.7 944C166.3 928 171.7 896 184.3 864C197 832 217 800 219.7 768C222.3 736 207.7 704 196.8 672C186 640 179 608 181.8 576C184.7 544 197.3 512 207.2 480C217 448 224 416 224 384C224 352 217 320 220.7 288C224.3 256 238.7 224 232.3 192C226 160 199 128 202.5 96C206 64 240 32 257 16L274 0L324 0L310.5 16C297 32 270 64 270.8 96C271.7 128 300.3 160 307.5 192C314.7 224 300.3 256 295 288C289.7 320 293.3 352 289.8 384C286.3 416 275.7 448 261.3 480C247 512 229 544 230.7 576C232.3 608 253.7 640 271.7 672C289.7 704 304.3 736 297.2 768C290 800 261 832 244.7 864C228.3 896 224.7 928 222.8 944L221 960Z" fill="#ba2839">
    </path>
    <path 
        d="M80 960L75.5 944C71 928 62 896 59.3 864C56.7 832 60.3 800 63 768C65.7 736 67.3 704 70 672C72.7 640 76.3 608 74.5 576C72.7 544 65.3 512 70.7 480C76 448 94 416 97.7 384C101.3 352 90.7 320 89.8 288C89 256 98 224 97.2 192C96.3 160 85.7 128 79.3 96C73 64 71 32 70 16L69 0L275 0L258 16C241 32 207 64 203.5 96C200 128 227 160 233.3 192C239.7 224 225.3 256 221.7 288C218 320 225 352 225 384C225 416 218 448 208.2 480C198.3 512 185.7 544 182.8 576C180 608 187 640 197.8 672C208.7 704 223.3 736 220.7 768C218 800 198 832 185.3 864C172.7 896 167.3 928 164.7 944L162 960Z" fill="#c3323a">
    </path>
    <path 
        d="M0 960L0 944C0 928 0 896 0 864C0 832 0 800 0 768C0 736 0 704 0 672C0 640 0 608 0 576C0 544 0 512 0 480C0 448 0 416 0 384C0 352 0 320 0 288C0 256 0 224 0 192C0 160 0 128 0 96C0 64 0 32 0 16L0 0L70 0L71 16C72 32 74 64 80.3 96C86.7 128 97.3 160 98.2 192C99 224 90 256 90.8 288C91.7 320 102.3 352 98.7 384C95 416 77 448 71.7 480C66.3 512 73.7 544 75.5 576C77.3 608 73.7 640 71 672C68.3 704 66.7 736 64 768C61.3 800 57.7 832 60.3 864C63 896 72 928 76.5 944L81 960Z" fill="#cb3b3b">
    </path>
</svg>